<svg id="Shapes" xmlns="http://www.w3.org/2000/svg" width="16" height="16" viewBox="0 0 16 16">
  <path id="Path" d="M9.805,2.639A3.791,3.791,0,0,0,8.658,0C7.929,3.487,4.465,6.139.305,6.139c-.1,0-.2-.018-.305-.021A7.288,7.288,0,0,0,3.805,7.139a7.966,7.966,0,0,0,1.307-.11l3.693,2.11v-4H8.793A3.738,3.738,0,0,0,9.805,2.639Z" transform="translate(6.195 6.861)" fill="#94a3b8"/>
  <path id="Path-2" data-name="Path" d="M6.5,0C2.91,0,0,2.462,0,5.5A4.874,4.874,0,0,0,1,8.422V12l2.7-1.542A7.454,7.454,0,0,0,6.5,11C10.09,11,13,8.538,13,5.5S10.09,0,6.5,0Z" fill="#64748b"/>
</svg>
